<svg xmlns="http://www.w3.org/2000/svg" viewBox="0 0 1024 630" fill="none">
  <defs>
    <radialGradient id="glowCenter" cx="0.5" cy="0.5" r="0.5">
      <stop offset="0" stop-color="#46309b" stop-opacity="0.25"/>
      <stop offset="0.6" stop-color="#3b2884" stop-opacity="0.12"/>
      <stop offset="1" stop-color="#2f2068" stop-opacity="0"/>
    </radialGradient>
    <radialGradient id="glowCluster" cx="0.5" cy="0.5" r="0.5">
      <stop offset="0" stop-color="#54389e" stop-opacity="0.32"/>
      <stop offset="1" stop-color="#54389e" stop-opacity="0"/>
    </radialGradient>
    <linearGradient id="blobTR" x1="950" y1="-100" x2="700" y2="250" gradientUnits="userSpaceOnUse">
      <stop stop-color="#7657b2"/>
      <stop offset="1" stop-color="#5c3a99"/>
    </linearGradient>
    <linearGradient id="blobBL" x1="0" y1="380" x2="420" y2="580" gradientUnits="userSpaceOnUse">
      <stop stop-color="#7756ba"/>
      <stop offset="1" stop-color="#57339d"/>
    </linearGradient>
    <linearGradient id="gSqA" x1="136" y1="110" x2="226" y2="198" gradientUnits="userSpaceOnUse">
      <stop stop-color="#8364c7"/>
      <stop offset="0.5" stop-color="#6e4bb2"/>
      <stop offset="1" stop-color="#5a339e"/>
    </linearGradient>
    <linearGradient id="gSqB" x1="321" y1="52" x2="376" y2="107" gradientUnits="userSpaceOnUse">
      <stop stop-color="#6043a0"/>
      <stop offset="1" stop-color="#684ea3"/>
    </linearGradient>
    <linearGradient id="gSqC" x1="893" y1="334" x2="964" y2="405" gradientUnits="userSpaceOnUse">
      <stop stop-color="#7452c0"/>
      <stop offset="1" stop-color="#5935ad"/>
    </linearGradient>
    <linearGradient id="gPill" x1="611" y1="471" x2="773" y2="471" gradientUnits="userSpaceOnUse">
      <stop stop-color="#64479e"/>
      <stop offset="1" stop-color="#52328c"/>
    </linearGradient>
    <linearGradient id="gStar" x1="930" y1="455" x2="808" y2="580" gradientUnits="userSpaceOnUse">
      <stop stop-color="#553496"/>
      <stop offset="1" stop-color="#422277"/>
    </linearGradient>
    <filter id="softEdge" x="-15%" y="-15%" width="130%" height="130%">
      <feGaussianBlur stdDeviation="1.3"/>
    </filter>
    <filter id="rimBlur" x="-40%" y="-40%" width="180%" height="180%">
      <feGaussianBlur stdDeviation="16"/>
    </filter>
    <clipPath id="frame"><rect width="1024" height="630"/></clipPath>
  </defs>
  <g clip-path="url(#frame)">
    <rect width="1024" height="630" fill="#0b0512"/>
    <circle cx="709" cy="315" r="480" fill="url(#glowCenter)"/>
    <circle cx="1024" cy="630" r="430" fill="url(#glowCluster)"/>
    <path d="M1024.0 264.1 L1017.5 265.1 L1010.8 266.0 L1004.0 266.8 L997.1 267.5 L990.0 268.2 L982.7 268.9 L975.3 269.4 L967.6 269.9 L959.7 270.4 L951.6 270.8 L943.0 271.1 L934.0 271.3 L924.4 271.5 L913.9 271.7 L901.7 271.7 L882.8 271.7 L869.6 271.7 L858.7 271.6 L848.9 271.4 L839.8 271.2 L831.1 270.9 L822.8 270.5 L814.8 270.1 L807.1 269.6 L799.6 269.0 L792.3 268.4 L785.2 267.7 L778.2 267.0 L771.4 266.2 L764.7 265.3 L758.1 264.4 L751.6 263.4 L745.3 262.4 L739.0 261.3 L732.9 260.1 L726.8 258.9 L720.9 257.6 L715.0 256.2 L709.2 254.8 L703.5 253.3 L697.9 251.8 L692.3 250.2 L686.8 248.5 L681.4 246.8 L676.1 245.0 L670.8 243.2 L665.6 241.3 L660.5 239.3 L655.4 237.3 L650.4 235.2 L645.5 233.1 L640.6 230.8 L635.8 228.6 L631.0 226.3 L626.4 223.9 L621.7 221.4 L617.2 218.9 L612.7 216.3 L608.3 213.7 L603.9 211.0 L599.6 208.3 L595.3 205.5 L591.1 202.6 L587.0 199.7 L582.9 196.7 L578.9 193.7 L575.0 190.6 L571.1 187.4 L567.3 184.2 L563.5 180.9 L559.8 177.6 L556.1 174.2 L552.6 170.7 L549.0 167.2 L545.6 163.6 L542.1 160.0 L538.8 156.3 L535.5 152.6 L532.3 148.7 L529.1 144.9 L526.0 141.0 L522.9 137.0 L520.0 132.9 L517.0 128.8 L514.2 124.7 L511.4 120.4 L508.6 116.2 L505.9 111.8 L503.3 107.4 L500.7 103.0 L498.2 98.4 L495.8 93.9 L493.4 89.2 L491.1 84.5 L488.8 79.7 L486.6 74.9 L484.5 70.0 L482.4 65.0 L480.4 60.0 L478.4 54.9 L476.6 49.7 L474.7 44.5 L473.0 39.2 L471.3 33.8 L469.6 28.4 L468.0 22.9 L466.5 17.3 L465.1 11.6 L463.7 5.8 L462.3 0.0" stroke="#7a58c4" stroke-opacity="0.45" stroke-width="40" filter="url(#rimBlur)"/>
    <path d="M0.0 352.5 L5.3 351.9 L10.6 351.3 L15.9 350.7 L21.1 350.2 L26.4 349.8 L31.7 349.4 L37.0 349.0 L42.3 348.6 L47.6 348.3 L52.8 348.0 L58.1 347.8 L63.4 347.5 L68.7 347.4 L74.0 347.2 L79.3 347.0 L84.6 346.9 L89.8 346.8 L95.1 346.8 L100.4 346.7 L105.7 346.7 L111.0 346.6 L116.3 346.6 L121.5 346.6 L126.8 346.6 L132.1 346.6 L137.4 346.6 L142.7 346.6 L148.0 346.7 L153.3 346.7 L158.5 346.8 L163.8 346.9 L169.1 347.0 L174.4 347.1 L179.7 347.2 L185.0 347.4 L190.2 347.6 L195.5 347.8 L200.8 348.1 L206.1 348.4 L211.4 348.7 L216.7 349.1 L222.0 349.5 L227.2 349.9 L232.5 350.4 L237.8 350.9 L243.1 351.5 L248.4 352.1 L253.7 352.7 L258.9 353.4 L264.2 354.1 L269.5 354.9 L274.8 355.7 L280.1 356.6 L285.4 357.6 L290.6 358.6 L295.9 359.6 L301.2 360.7 L306.5 361.9 L311.8 363.1 L317.1 364.4 L322.4 365.7 L327.6 367.2 L332.9 368.6 L338.2 370.2 L343.5 371.8 L348.8 373.5 L354.1 375.3 L359.3 377.2 L364.6 379.1 L369.9 381.1 L375.2 383.3 L380.5 385.5 L385.8 387.8 L391.1 390.2 L396.3 392.7 L401.6 395.3 L406.9 398.0 L412.2 400.8 L417.5 403.7 L422.8 406.8 L428.0 410.0 L433.3 413.3 L438.6 416.7 L443.9 420.3 L449.2 424.1 L454.5 428.0 L459.8 432.1 L465.0 436.4 L470.3 440.8 L475.6 445.4 L480.9 450.3 L486.2 455.4 L491.5 460.7 L496.7 466.3 L502.0 472.2 L507.3 478.3 L512.6 484.8 L517.9 491.7 L523.2 498.9 L528.5 506.6 L533.7 514.8 L539.0 523.5 L544.3 532.8 L549.6 542.9 L554.9 553.8 L560.2 565.7 L565.4 578.9 L570.7 593.6 L576.0 610.4 L581.3 630.1" stroke="#7a58c4" stroke-opacity="0.5" stroke-width="46" filter="url(#rimBlur)"/>
    <path d="M1024.0 264.1 L1017.5 265.1 L1010.8 266.0 L1004.0 266.8 L997.1 267.5 L990.0 268.2 L982.7 268.9 L975.3 269.4 L967.6 269.9 L959.7 270.4 L951.6 270.8 L943.0 271.1 L934.0 271.3 L924.4 271.5 L913.9 271.7 L901.7 271.7 L882.8 271.7 L869.6 271.7 L858.7 271.6 L848.9 271.4 L839.8 271.2 L831.1 270.9 L822.8 270.5 L814.8 270.1 L807.1 269.6 L799.6 269.0 L792.3 268.4 L785.2 267.7 L778.2 267.0 L771.4 266.2 L764.7 265.3 L758.1 264.4 L751.6 263.4 L745.3 262.4 L739.0 261.3 L732.9 260.1 L726.8 258.9 L720.9 257.6 L715.0 256.2 L709.2 254.8 L703.5 253.3 L697.9 251.8 L692.3 250.2 L686.8 248.5 L681.4 246.8 L676.1 245.0 L670.8 243.2 L665.6 241.3 L660.5 239.3 L655.4 237.3 L650.4 235.2 L645.5 233.1 L640.6 230.8 L635.8 228.6 L631.0 226.3 L626.4 223.9 L621.7 221.4 L617.2 218.9 L612.7 216.3 L608.3 213.7 L603.9 211.0 L599.6 208.3 L595.3 205.5 L591.1 202.6 L587.0 199.7 L582.9 196.7 L578.9 193.7 L575.0 190.6 L571.1 187.4 L567.3 184.2 L563.5 180.9 L559.8 177.6 L556.1 174.2 L552.6 170.7 L549.0 167.2 L545.6 163.6 L542.1 160.0 L538.8 156.3 L535.5 152.6 L532.3 148.7 L529.1 144.9 L526.0 141.0 L522.9 137.0 L520.0 132.9 L517.0 128.8 L514.2 124.7 L511.4 120.4 L508.6 116.2 L505.9 111.8 L503.3 107.4 L500.7 103.0 L498.2 98.4 L495.8 93.9 L493.4 89.2 L491.1 84.5 L488.8 79.7 L486.6 74.9 L484.5 70.0 L482.4 65.0 L480.4 60.0 L478.4 54.9 L476.6 49.7 L474.7 44.5 L473.0 39.2 L471.3 33.8 L469.6 28.4 L468.0 22.9 L466.5 17.3 L465.1 11.6 L463.7 5.8 L462.3 0.0 L1024 0 Z" fill="url(#blobTR)"/>
    <path d="M1024.0 264.1 L1017.5 265.1 L1010.8 266.0 L1004.0 266.8 L997.1 267.5 L990.0 268.2 L982.7 268.9 L975.3 269.4 L967.6 269.9 L959.7 270.4 L951.6 270.8 L943.0 271.1 L934.0 271.3 L924.4 271.5 L913.9 271.7 L901.7 271.7 L882.8 271.7 L869.6 271.7 L858.7 271.6 L848.9 271.4 L839.8 271.2 L831.1 270.9 L822.8 270.5 L814.8 270.1 L807.1 269.6 L799.6 269.0 L792.3 268.4 L785.2 267.7 L778.2 267.0 L771.4 266.2 L764.7 265.3 L758.1 264.4 L751.6 263.4 L745.3 262.4 L739.0 261.3 L732.9 260.1 L726.8 258.9 L720.9 257.6 L715.0 256.2 L709.2 254.8 L703.5 253.3 L697.9 251.8 L692.3 250.2 L686.8 248.5 L681.4 246.8 L676.1 245.0 L670.8 243.2 L665.6 241.3 L660.5 239.3 L655.4 237.3 L650.4 235.2 L645.5 233.1 L640.6 230.8 L635.8 228.6 L631.0 226.3 L626.4 223.9 L621.7 221.4 L617.2 218.9 L612.7 216.3 L608.3 213.7 L603.9 211.0 L599.6 208.3 L595.3 205.5 L591.1 202.6 L587.0 199.7 L582.9 196.7 L578.9 193.7 L575.0 190.6 L571.1 187.4 L567.3 184.2 L563.5 180.9 L559.8 177.6 L556.1 174.2 L552.6 170.7 L549.0 167.2 L545.6 163.6 L542.1 160.0 L538.8 156.3 L535.5 152.6 L532.3 148.7 L529.1 144.9 L526.0 141.0 L522.9 137.0 L520.0 132.9 L517.0 128.8 L514.2 124.7 L511.4 120.4 L508.6 116.2 L505.9 111.8 L503.3 107.4 L500.7 103.0 L498.2 98.4 L495.8 93.9 L493.4 89.2 L491.1 84.5 L488.8 79.7 L486.6 74.9 L484.5 70.0 L482.4 65.0 L480.4 60.0 L478.4 54.9 L476.6 49.7 L474.7 44.5 L473.0 39.2 L471.3 33.8 L469.6 28.4 L468.0 22.9 L466.5 17.3 L465.1 11.6 L463.7 5.8 L462.3 0.0" stroke="#a89ac8" stroke-width="2.2"/>
    <path d="M0.0 352.5 L5.3 351.9 L10.6 351.3 L15.9 350.7 L21.1 350.2 L26.4 349.8 L31.7 349.4 L37.0 349.0 L42.3 348.6 L47.6 348.3 L52.8 348.0 L58.1 347.8 L63.4 347.5 L68.7 347.4 L74.0 347.2 L79.3 347.0 L84.6 346.9 L89.8 346.8 L95.1 346.8 L100.4 346.7 L105.7 346.7 L111.0 346.6 L116.3 346.6 L121.5 346.6 L126.8 346.6 L132.1 346.6 L137.4 346.6 L142.7 346.6 L148.0 346.7 L153.3 346.7 L158.5 346.8 L163.8 346.9 L169.1 347.0 L174.4 347.1 L179.7 347.2 L185.0 347.4 L190.2 347.6 L195.5 347.8 L200.8 348.1 L206.1 348.4 L211.4 348.7 L216.7 349.1 L222.0 349.5 L227.2 349.9 L232.5 350.4 L237.8 350.9 L243.1 351.5 L248.4 352.1 L253.7 352.7 L258.9 353.4 L264.2 354.1 L269.5 354.9 L274.8 355.7 L280.1 356.6 L285.4 357.6 L290.6 358.6 L295.9 359.6 L301.2 360.7 L306.5 361.9 L311.8 363.1 L317.1 364.4 L322.4 365.7 L327.6 367.2 L332.9 368.6 L338.2 370.2 L343.5 371.8 L348.8 373.5 L354.1 375.3 L359.3 377.2 L364.6 379.1 L369.9 381.1 L375.2 383.3 L380.5 385.5 L385.8 387.8 L391.1 390.2 L396.3 392.7 L401.6 395.3 L406.9 398.0 L412.2 400.8 L417.5 403.7 L422.8 406.8 L428.0 410.0 L433.3 413.3 L438.6 416.7 L443.9 420.3 L449.2 424.1 L454.5 428.0 L459.8 432.1 L465.0 436.4 L470.3 440.8 L475.6 445.4 L480.9 450.3 L486.2 455.4 L491.5 460.7 L496.7 466.3 L502.0 472.2 L507.3 478.3 L512.6 484.8 L517.9 491.7 L523.2 498.9 L528.5 506.6 L533.7 514.8 L539.0 523.5 L544.3 532.8 L549.6 542.9 L554.9 553.8 L560.2 565.7 L565.4 578.9 L570.7 593.6 L576.0 610.4 L581.3 630.1 L0 630 Z" fill="url(#blobBL)"/>
    <path d="M0.0 352.5 L5.3 351.9 L10.6 351.3 L15.9 350.7 L21.1 350.2 L26.4 349.8 L31.7 349.4 L37.0 349.0 L42.3 348.6 L47.6 348.3 L52.8 348.0 L58.1 347.8 L63.4 347.5 L68.7 347.4 L74.0 347.2 L79.3 347.0 L84.6 346.9 L89.8 346.8 L95.1 346.8 L100.4 346.7 L105.7 346.7 L111.0 346.6 L116.3 346.6 L121.5 346.6 L126.8 346.6 L132.1 346.6 L137.4 346.6 L142.7 346.6 L148.0 346.7 L153.3 346.7 L158.5 346.8 L163.8 346.9 L169.1 347.0 L174.4 347.1 L179.7 347.2 L185.0 347.4 L190.2 347.6 L195.5 347.8 L200.8 348.1 L206.1 348.4 L211.4 348.7 L216.7 349.1 L222.0 349.5 L227.2 349.9 L232.5 350.4 L237.8 350.9 L243.1 351.5 L248.4 352.1 L253.7 352.7 L258.9 353.4 L264.2 354.1 L269.5 354.9 L274.8 355.7 L280.1 356.6 L285.4 357.6 L290.6 358.6 L295.9 359.6 L301.2 360.7 L306.5 361.9 L311.8 363.1 L317.1 364.4 L322.4 365.7 L327.6 367.2 L332.9 368.6 L338.2 370.2 L343.5 371.8 L348.8 373.5 L354.1 375.3 L359.3 377.2 L364.6 379.1 L369.9 381.1 L375.2 383.3 L380.5 385.5 L385.8 387.8 L391.1 390.2 L396.3 392.7 L401.6 395.3 L406.9 398.0 L412.2 400.8 L417.5 403.7 L422.8 406.8 L428.0 410.0 L433.3 413.3 L438.6 416.7 L443.9 420.3 L449.2 424.1 L454.5 428.0 L459.8 432.1 L465.0 436.4 L470.3 440.8 L475.6 445.4 L480.9 450.3 L486.2 455.4 L491.5 460.7 L496.7 466.3 L502.0 472.2 L507.3 478.3 L512.6 484.8 L517.9 491.7 L523.2 498.9 L528.5 506.6 L533.7 514.8 L539.0 523.5 L544.3 532.8 L549.6 542.9 L554.9 553.8 L560.2 565.7 L565.4 578.9 L570.7 593.6 L576.0 610.4 L581.3 630.1" stroke="#a89ac8" stroke-width="2.2"/>
    <rect x="137.7" y="112.5" width="85.1" height="85.1" rx="26.8" fill="url(#gSqA)" transform="rotate(11 180.2 155)"/>
    <rect x="322.1" y="52.9" width="53.6" height="53.6" rx="17.3" fill="url(#gSqB)" transform="rotate(-15 348.9 79.7)"/>
    <circle cx="473" cy="186" r="20" fill="#70618e"/>
    <circle cx="375" cy="268" r="10" fill="#5a4e78"/>
    <rect x="895.5" y="336.2" width="66.2" height="66.2" rx="20.5" fill="url(#gSqC)" transform="rotate(15 928.6 369.3)"/>
    <rect x="611.4" y="449.6" width="161.3" height="44.1" rx="22.05" fill="url(#gPill)" transform="rotate(6.9 692.1 471.7)"/>
    <path fill="url(#gStar)" filter="url(#softEdge)" d="M932.2 526.2 L931.7 530.9 L930.2 535.5 L927.8 539.8 L924.7 543.7 L921.0 547.1 L917.0 550.1 L912.9 552.6 L908.9 554.8 L905.2 556.8 L901.7 558.7 L898.8 560.7 L896.2 563.0 L893.9 565.6 L891.9 568.5 L890.0 572.0 L888.0 575.7 L885.8 579.7 L883.3 583.8 L880.3 587.8 L876.9 591.5 L873.0 594.6 L868.7 597.0 L864.1 598.5 L859.4 599.0 L854.7 598.5 L850.1 597.0 L845.8 594.6 L841.9 591.5 L838.5 587.8 L835.5 583.8 L833.0 579.7 L830.8 575.7 L828.8 572.0 L826.9 568.5 L824.9 565.6 L822.6 563.0 L820.0 560.7 L817.1 558.7 L813.6 556.8 L809.9 554.8 L805.9 552.6 L801.8 550.1 L797.8 547.1 L794.1 543.7 L791.0 539.8 L788.6 535.5 L787.1 530.9 L786.6 526.2 L787.1 521.5 L788.6 516.9 L791.0 512.6 L794.1 508.7 L797.8 505.3 L801.8 502.3 L805.9 499.8 L809.9 497.6 L813.6 495.6 L817.1 493.7 L820.0 491.7 L822.6 489.4 L824.9 486.8 L826.9 483.9 L828.8 480.4 L830.8 476.7 L833.0 472.7 L835.5 468.6 L838.5 464.6 L841.9 460.9 L845.8 457.8 L850.1 455.4 L854.7 453.9 L859.4 453.4 L864.1 453.9 L868.7 455.4 L873.0 457.8 L876.9 460.9 L880.3 464.6 L883.3 468.6 L885.8 472.7 L888.0 476.7 L890.0 480.4 L891.9 483.9 L893.9 486.8 L896.2 489.4 L898.8 491.7 L901.7 493.7 L905.2 495.6 L908.9 497.6 L912.9 499.8 L917.0 502.3 L921.0 505.3 L924.7 508.7 L927.8 512.6 L930.2 516.9 L931.7 521.5 Z"/>
    <circle cx="967" cy="473" r="15" fill="#583e8f"/>
  </g>
</svg>
