<svg width="32" height="32" viewBox="0 0 32 32" xmlns="http://www.w3.org/2000/svg">
  <defs>
    <linearGradient id="fr-base" x1="4" y1="4" x2="28" y2="28" gradientUnits="userSpaceOnUse">
      <stop offset="0" stop-color="#2b2930"/>
      <stop offset="1" stop-color="#1d1b20"/>
    </linearGradient>
    <linearGradient id="fr-back" x1="15" y1="8" x2="25" y2="25" gradientUnits="userSpaceOnUse">
      <stop offset="0" stop-color="#a78fce"/>
      <stop offset="1" stop-color="#6f5aa8"/>
    </linearGradient>
    <linearGradient id="fr-front" x1="7" y1="9" x2="18" y2="26" gradientUnits="userSpaceOnUse">
      <stop offset="0" stop-color="#efb8c8"/>
      <stop offset="1" stop-color="#9a82db"/>
    </linearGradient>
    <radialGradient id="fr-spec" cx="0.3" cy="0.22" r="0.55">
      <stop offset="0" stop-color="#ffffff" stop-opacity="0.5"/>
      <stop offset="1" stop-color="#ffffff" stop-opacity="0"/>
    </radialGradient>
    <filter id="fr-shadow" x="-30%" y="-30%" width="160%" height="160%">
      <feDropShadow dx="0" dy="1.1" stdDeviation="1" flood-color="#000000" flood-opacity="0.35"/>
    </filter>
  </defs>
  <rect x="2" y="2" width="28" height="28" rx="9" fill="url(#fr-base)"/>
  <g stroke="#ffffff" stroke-opacity="0.15" stroke-width="0.5">
    <circle cx="20" cy="11.6" r="3.3" fill="url(#fr-back)"/>
    <path d="M14.9 24.6 C14.9 18.9 17 16.3 20 16.3 C23 16.3 25.1 18.9 25.1 24.6 Z" fill="url(#fr-back)"/>
    <g filter="url(#fr-shadow)">
      <circle cx="12.2" cy="13.1" r="3.8" fill="url(#fr-front)"/>
      <path d="M6.4 25.4 C6.4 18.5 8.8 15.6 12.2 15.6 C15.6 15.6 18 18.5 18 25.4 Z" fill="url(#fr-front)"/>
    </g>
  </g>
  <ellipse cx="9.5" cy="10.8" rx="3.4" ry="2.2" fill="url(#fr-spec)"/>
</svg>
